:version 1.10
:name ASF
:units
  mass 1
  length 1
  angle deg
:documentation
  ASF file generated by Kaydara
:root
  axis xyz
  order  tx ty tz rx ry rz
  position 0 0 0
  orientation 0 0 0
:bonedata
  begin
    id 1
    name LeftUpLegDummy
    direction 1 -2.30186e-007 -8.31532e-007
    length 2.93387
    axis 0 0 0 xyz
  end
  begin
    id 2
    name LeftUpLeg
    direction -1.82929e-007 -1 -1.48925e-009
    length 17.3336
    axis -3.48766 0.00143442 -0.000521554 xyz
    dof rx ry rz
  end
  begin
    id 3
    name LeftLeg
    direction -1.82929e-007 -1 -5.23717e-011
    length 14.9995
    axis 3.68178 -0.00654042 -0.000282425 xyz
    dof rx ry rz
  end
  begin
    id 4
    name LeftFoot
    direction 8.31532e-007 -4.54534e-011 1
    length 6.74421
    axis 1.87234e-006 4.66016e-005 -5.96866e-006 xyz
    dof rx ry rz
  end
  begin
    id 5
    name LeftToes
    direction 0.00818058 -0.00485161 0.999955
    length 3.85048
    axis 1.06247e-005 4.65869e-005 -5.96999e-006 xyz
    dof rx ry rz
  end
  begin
    id 6
    name SpineDummy
    direction -5.8607e-008 0.943407 -0.331637
    length 5.93572
    axis 0 0 0 xyz
  end
  begin
    id 7
    name Spine
    direction -1.04988e-007 0.999988 0.00495137
    length 10.1015
    axis -0.001389 0.000121417 6.61666e-006 xyz
    dof rx ry rz
  end
  begin
    id 8
    name Spine1
    direction 0 0 0
    length 0
    axis -0.001389 0.00012144 6.56766e-006 xyz
    dof rx ry rz
  end
  begin
    id 9
    name RightShoulderDummy
    direction -0.98348 0.17941 -0.0240696
    length 3.59882
    axis -0.001389 0.00012144 6.56766e-006 xyz
  end
  begin
    id 10
    name RightShoulder
    direction -0.978693 0.204882 0.0135597
    length 2.70001
    axis 0.215806 0.000203631 -0.00679732 xyz
    dof rx ry rz
  end
  begin
    id 11
    name RightArm
    direction -1 3.85509e-006 8.31394e-007
    length 10.2459
    axis -23.2009 -0.134239 -0.964098 xyz
    dof rx ry rz
  end
  begin
    id 12
    name RightForeArm
    direction -1 3.85569e-006 8.3129e-007
    length 8.16799
    axis -9.92322 0.0658061 0.17887 xyz
    dof rx ry rz
  end
  begin
    id 13
    name RightHand
    direction -0.992843 -0.0414604 0.112003
    length 5.28593
    axis -0.00960638 0.00330669 -0.185225 xyz
    dof rx ry rz
  end
  begin
    id 14
    name LeftShoulder1Dummy
    direction 0.983523 0.179172 -0.0240748
    length 3.59866
    axis -0.001389 0.00012144 6.56766e-006 xyz
  end
  begin
    id 15
    name LeftShoulder1
    direction 0.978627 0.205195 0.0135605
    length 2.70019
    axis -0.001389 0.00012144 6.57583e-006 xyz
    dof rx ry rz
  end
  begin
    id 16
    name LeftArm
    direction 1 3.51895e-006 -8.60188e-007
    length 10.2459
    axis -23.1894 0.134785 0.967513 xyz
    dof rx ry rz
  end
  begin
    id 17
    name LeftForeArm
    direction 1 3.51921e-006 -7.32029e-007
    length 8.16799
    axis -9.91835 -0.0656957 -0.177789 xyz
    dof rx ry rz
  end
  begin
    id 18
    name LeftHand
    direction 0.992938 -0.0411636 0.11126
    length 5.32135
    axis -0.00960237 -0.00340661 0.185177 xyz
    dof rx ry rz
  end
  begin
    id 19
    name HEadDummy
    direction 1.01974e-006 0.999861 -0.016675
    length 2.99946
    axis -0.001389 0.00012144 6.56766e-006 xyz
  end
  begin
    id 20
    name HEad
    direction -0.0222689 0.980941 0.193023
    length 5.12695
    axis -0.001389 0.00012144 6.56766e-006 xyz
    dof rx ry rz
  end
  begin
    id 21
    name RightUpLegDummy
    direction -1 2.30186e-007 8.31532e-007
    length 2.93387
    axis 0 0 0 xyz
  end
  begin
    id 22
    name RightUpLeg
    direction -1.82966e-007 -1 1.56832e-007
    length 17.3336
    axis -3.4909 -0.000906625 0.00028951 xyz
    dof rx ry rz
  end
  begin
    id 23
    name RightLeg
    direction -1.82786e-007 -1 -1.80317e-007
    length 14.9995
    axis 3.68513 0.0193739 -0.131021 xyz
    dof rx ry rz
  end
  begin
    id 24
    name RightFoot
    direction 8.31721e-007 -4.63324e-011 1
    length 6.74421
    axis 4.81691e-005 -0.120479 -0.188785 xyz
    dof rx ry rz
  end
  begin
    id 25
    name RightToes
    direction 0.00124746 -0.014064 0.9999
    length 3.85082
    axis 0.000481921 0.542163 -0.142575 xyz
    dof rx ry rz
  end
:hierarchy
  begin
    root LeftUpLegDummy SpineDummy RightUpLegDummy
    LeftUpLegDummy LeftUpLeg
    LeftUpLeg LeftLeg
    LeftLeg LeftFoot
    LeftFoot LeftToes
    SpineDummy Spine
    Spine Spine1
    Spine1 RightShoulderDummy LeftShoulder1Dummy HEadDummy
    RightShoulderDummy RightShoulder
    RightShoulder RightArm
    RightArm RightForeArm
    RightForeArm RightHand
    LeftShoulder1Dummy LeftShoulder1
    LeftShoulder1 LeftArm
    LeftArm LeftForeArm
    LeftForeArm LeftHand
    HEadDummy HEad
    RightUpLegDummy RightUpLeg
    RightUpLeg RightLeg
    RightLeg RightFoot
    RightFoot RightToes
  end

:SAMPLES-PER-SECOND 30
:FULLY-SPECIFIED
:DEGREES
112
root  2.16887 34.5325 29.8121 5.40115 16.5259 -0.951353
LeftUpLeg  -11.9361 3.11289 3.12399
LeftLeg  12.554 -2.94116 -0.460354
LeftFoot  2.04886 -0.00827831 -0.0997206
LeftToes  -16.5707 2.60077e-006 -1.42232e-007
Spine  1.37018 4.56632 -4.00635
Spine1  2.12174 9.289 -7.84863
RightShoulder  0.0197705 4.78104 -0.885847
RightArm  -81.971 43.0948 22.5341
RightForeArm  2.68789 35.2218 7.13779
RightHand  1.53574 -15.1792 -11.1132
LeftShoulder1  0.0582595 -1.12384 -6.47831
LeftArm  -25.5855 12.3987 -64.9204
LeftForeArm  34.0272 -14.9026 -2.68071
LeftHand  0.0800347 2.46047 3.54193
HEad  -8.81419 -27.6243 6.27284
RightUpLeg  -8.70641 -8.64278 -3.27815
RightLeg  10.3734 1.68244 0.198667
RightFoot  2.84787 -0.00317508 0.121404
RightToes  -34.6254 -0.177213 -0.282826
113
root  2.24336 34.5296 29.8172 5.52519 17.1868 -0.906385
LeftUpLeg  -12.1374 2.83717 2.96021
LeftLeg  12.6353 -3.32855 -0.525576
LeftFoot  1.9666 -0.00771403 -0.108382
LeftToes  -16.3529 2.60077e-006 -1.42232e-007
Spine  1.35597 4.62434 -4.0694
Spine1  2.07767 9.41439 -7.9861
RightShoulder  0.019857 5.19077 -0.747679
RightArm  -81.7354 40.9537 21.9519
RightForeArm  -0.216822 33.7853 6.75699
RightHand  1.09895 -15.4888 -7.69459
LeftShoulder1  0.0585242 -1.01325 -6.85973
LeftArm  -25.8525 12.6785 -64.2879
LeftForeArm  33.8383 -14.9925 -2.6978
LeftHand  0.0807834 2.4784 3.60667
HEad  -8.98903 -28.443 6.36046
RightUpLeg  -8.63993 -8.68475 -3.43002
RightLeg  10.3041 1.0702 0.125553
RightFoot  2.86256 -0.00133048 0.0919559
RightToes  -34.7901 -0.178723 -0.284223
114
root  2.31977 34.5278 29.8312 5.71511 17.8366 -0.832735
LeftUpLeg  -12.3263 2.74656 2.76032
LeftLeg  12.6061 -3.86692 -0.608199
LeftFoot  1.95116 -0.00662165 -0.125194
LeftToes  -16.1655 2.60077e-006 -1.42232e-007
Spine  1.35637 4.61189 -4.11413
Spine1  2.0845 9.39117 -8.07109
RightShoulder  0.0197479 5.43805 -0.514117
RightArm  -80.1378 39.2855 21.8691
RightForeArm  -1.00778 33.1729 6.59925
RightHand  0.774794 -15.7385 -5.22924
LeftShoulder1  0.0587232 -0.915385 -7.11139
LeftArm  -26.2255 13.0728 -63.8233
LeftForeArm  33.6913 -15.0925 -2.71679
LeftHand  0.0812616 2.43296 3.61787
HEad  -9.26129 -29.1591 6.20091
RightUpLeg  -8.64821 -8.78085 -3.59397
RightLeg  10.3055 0.504213 0.0598784
RightFoot  2.8589 0.000421633 0.0645895
RightToes  -35.0583 -0.180259 -0.285543
115
root  2.39435 34.5268 29.8516 5.93819 18.3362 -0.748729
LeftUpLeg  -12.389 2.87024 2.54935
LeftLeg  12.3189 -4.46538 -0.678989
LeftFoot  2.03311 -0.00492857 -0.151287
LeftToes  -16.1278 2.60077e-006 -1.42232e-007
Spine  1.35231 4.62927 -4.14759
Spine1  2.08424 9.42647 -8.133
RightShoulder  0.0187384 5.87247 -0.336443
RightArm  -78.0978 37.2127 22.1863
RightForeArm  -3.07611 34.155 6.84782
RightHand  0.672607 -16.8059 -4.17932
LeftShoulder1  0.0588618 -0.841985 -7.15496
LeftArm  -26.5464 13.457 -63.6057
LeftForeArm  33.7411 -15.0428 -2.70738
LeftHand  0.0816579 2.4162 3.63398
HEad  -9.5471 -29.9855 6.02562
RightUpLeg  -8.67999 -8.53461 -3.75432
RightLeg  10.2622 -0.282575 -0.0312224
RightFoot  2.91188 0.00296531 0.0256123
RightToes  -35.2822 -0.181935 -0.2867
116
root  2.46899 34.5285 29.8868 6.18037 18.8096 -0.615523
LeftUpLeg  -12.3484 3.13473 2.28744
LeftLeg  11.8745 -5.14996 -0.741786
LeftFoot  2.18501 -0.00250779 -0.188634
LeftToes  -16.1103 2.60077e-006 -1.42232e-007
Spine  1.33215 4.65747 -4.18573
Spine1  2.06154 9.47285 -8.18945
RightShoulder  0.0162449 6.33775 0.0332168
RightArm  -76.4332 34.8066 22.6826
RightForeArm  -2.37866 37.1301 7.65155
RightHand  0.632518 -17.9147 -3.64
LeftShoulder1  0.0589456 -0.822879 -7.21033
LeftArm  -26.7313 13.7742 -63.3979
LeftForeArm  33.8887 -14.8288 -2.66691
LeftHand  0.0819163 2.47181 3.66919
HEad  -9.67597 -31.0578 5.9779
RightUpLeg  -8.83458 -8.72674 -3.95807
RightLeg  10.5185 -0.581942 -0.0683911
RightFoot  2.85183 0.00390456 0.0122578
RightToes  -35.3866 -0.182868 -0.287607
117
root  2.53507 34.5335 29.9333 6.40927 19.3356 -0.496155
LeftUpLeg  -12.3096 3.3229 2.04655
LeftLeg  11.4578 -5.75941 -0.786434
LeftFoot  2.35667 6.06815e-005 -0.228223
LeftToes  -15.9819 2.60077e-006 -1.42232e-007
Spine  1.29387 4.62462 -4.2353
Spine1  2.02262 9.3844 -8.24964
RightShoulder  0.0132278 6.43582 0.607748
RightArm  -75.1739 32.7674 23.6292
RightForeArm  0.97368 41.841 9.07328
RightHand  0.689844 -19.569 -3.62746
LeftShoulder1  0.0589799 -0.78972 -7.34176
LeftArm  -26.9929 14.0863 -63.0863
LeftForeArm  34.0152 -14.5739 -2.61888
LeftHand  0.0820433 2.44207 3.65469
HEad  -9.658 -32.2408 6.02959
RightUpLeg  -8.96299 -9.12883 -4.137
RightLeg  10.8049 -0.697132 -0.0857538
RightFoot  2.76783 0.00424983 0.00887206
RightToes  -35.4138 -0.183712 -0.28833
